:SAMPLES-PER-SECOND 30
:FRAME-RANGE 1-1086
:FULLY-SPECIFIED
:DEGREES
883
root  39.883 39.0294 -98.3302 -174.742 -31.7601 178.48
RightUpLeg  -23.6532 -4.64093 -4.40852
RightLeg  -3.77606 -13.0199 3.46928
RightFoot  1.39848 -1.6886 15.1311
RightToes  -5.8209e-011 0 -3.6325e-017
Spine  2.14393 -1.34357 -4.93747
Spine1  2.46507 -0.973708 -0.534448
HEad  8.41753 0.235451 -1.44365
LeftShoulder1  2.08135 -2.31308 -29.7351
LeftArm  11.2863 -11.5469 -28.6278
LeftForeArm  -10.1068 -60.3866 -21.2873
LeftHand  -0.279028 7.01849 -15.6943
RightShoulder  7.08207 11.6856 40.4953
RightArm  0.313376 2.19678 8.85989
RightForeArm  -17.2595 62.4452 24.0339
RightHand  0.305275 -3.46889 20.2054
LeftUpLeg  -6.29757 11.9948 -5.43743
LeftLeg  18.7903 5.87738 0.60419
LeftFoot  -17.4854 0.139747 0.649044
LeftToes  5.72949e-011 5.22586e-011 2.45399e-011
884
root  39.3247 38.9049 -99.3389 -175.036 -32.8552 178.246
RightUpLeg  -22.8545 -4.06986 -4.15087
RightLeg  -1.84032 -11.2353 2.40581
RightFoot  1.40724 -1.54007 13.8108
RightToes  -5.8209e-011 0 -3.6325e-017
Spine  1.92952 -1.38955 -4.39688
Spine1  2.49736 -1.14938 -0.305575
HEad  8.88977 -0.146635 -1.85627
LeftShoulder1  2.08404 -2.31012 -29.8006
LeftArm  11.368 -11.0412 -28.5453
LeftForeArm  -10.1261 -60.4 -21.3016
LeftHand  -0.285159 7.02528 -15.6587
RightShoulder  7.0469 11.5953 40.5396
RightArm  0.315285 2.16919 8.83694
RightForeArm  -16.5618 62.449 23.9818
RightHand  0.206123 -4.04727 20.8644
LeftUpLeg  -3.759 12.1099 -4.99785
LeftLeg  18.6806 4.67004 0.485195
LeftFoot  -18.954 0.120562 0.102925
LeftToes  5.72949e-011 5.22586e-011 2.45399e-011
885
root  38.7723 38.897 -100.352 -175.755 -34.0152 178.898
RightUpLeg  -22.9085 -3.38959 -3.09403
RightLeg  2.32973 -10.506 1.26946
RightFoot  4.67724 -1.26612 9.20819
RightToes  -5.8209e-011 0 -3.6325e-017
Spine  1.624 -1.33315 -2.70955
Spine1  2.84249 -1.32003 0.134379
HEad  9.24514 -0.781808 -2.20728
LeftShoulder1  2.07623 -2.2905 -29.7867
LeftArm  11.6432 -10.5814 -28.4607
LeftForeArm  -9.97662 -60.5173 -21.4001
LeftHand  -0.282338 6.99004 -15.7977
RightShoulder  6.95002 11.3689 40.5974
RightArm  0.657753 2.03984 8.64576
RightForeArm  -16.2671 62.8988 24.474
RightHand  0.184272 -4.15323 20.6988
LeftUpLeg  -0.974344 12.6791 -3.6231
LeftLeg  17.8391 2.87682 0.325102
LeftFoot  -19.709 0.0587282 -0.81335
LeftToes  5.72949e-011 5.22586e-011 2.45399e-011
886
root  38.2191 38.8801 -101.393 -176.726 -35.1147 -179.922
RightUpLeg  -22.9054 -2.99641 -1.9831
RightLeg  5.61844 -10.5886 0.479937
RightFoot  9.22749 -0.902771 5.32189
RightToes  -5.8209e-011 0 -3.6325e-017
Spine  1.51948 -1.20603 -0.459954
Spine1  2.88274 -1.34501 0.467063
HEad  9.62892 -1.59988 -2.57249
LeftShoulder1  2.06121 -2.22462 -29.9382
LeftArm  12.1138 -10.3464 -28.3008
LeftForeArm  -10.0164 -60.5707 -21.4547
LeftHand  -0.28251 7.01368 -15.8245
RightShoulder  6.80049 11.0444 40.6138
RightArm  0.680115 1.84817 8.63739
RightForeArm  -15.7227 63.2202 24.8092
RightHand  0.182972 -4.16714 20.8302
LeftUpLeg  0.804621 13.5811 -1.71414
LeftLeg  18.846 0.75657 0.432599
LeftFoot  -20.2352 -0.077923 -2.56205
LeftToes  5.72949e-011 5.22586e-011 2.45399e-011
887
root  37.6545 38.8478 -102.465 -178.098 -35.6085 -178.686
RightUpLeg  -23.2868 -2.82641 -0.178236
RightLeg  11.5739 -9.76963 -1.63712
RightFoot  6.84013 -0.522492 3.55733
RightToes  -5.8209e-011 0 -3.6325e-017
Spine  1.80682 -1.00388 2.06184
Spine1  3.02176 -1.09579 0.233395
HEad  9.78782 -2.07909 -2.95609
LeftShoulder1  2.03248 -2.10889 -30.1705
LeftArm  12.0944 -9.91099 -28.2162
LeftForeArm  -10.0361 -60.5536 -21.44
LeftHand  -0.272785 6.94509 -15.8417
RightShoulder  6.84554 11.0448 40.9049
RightArm  0.371597 1.91879 8.75598
RightForeArm  -15.6394 62.9051 24.4289
RightHand  0.198023 -4.08928 20.8544
LeftUpLeg  1.75812 13.5511 0.500288
LeftLeg  22.369 -0.129133 0.279084
LeftFoot  -20.0928 -0.320766 -5.76192
LeftToes  5.72949e-011 5.22586e-011 2.45399e-011
888
root  37.1469 38.8089 -103.509 -179.086 -36.3232 -177.974
RightUpLeg  -22.9231 -4.33076 1.00013
RightLeg  15.9282 -8.46749 -2.41402
RightFoot  3.61708 -0.39824 3.22043
RightToes  -5.8209e-011 0 -3.6325e-017
Spine  1.83195 -0.967123 3.40227
Spine1  3.47231 -1.11667 0.871307
HEad  10.451 -2.51584 -3.02847
LeftShoulder1  2.02966 -2.09639 -30.2011
LeftArm  11.8462 -9.18001 -28.2624
LeftForeArm  -10.0238 -60.1797 -21.0861
LeftHand  -0.247675 6.75953 -15.9859
RightShoulder  7.03739 11.2867 41.3997
RightArm  0.314047 1.98288 8.84806
RightForeArm  -15.9185 62.2463 23.7027
RightHand  0.234402 -3.88785 20.7029
LeftUpLeg  0.851713 14.5167 2.82573
LeftLeg  28.9158 -1.49455 -0.547959
LeftFoot  -18.0867 -0.51039 -10.4725
LeftToes  5.72949e-011 5.22586e-011 2.45399e-011
